<?xml version="1.0" encoding="UTF-8" standalone="no"?>
<!DOCTYPE svg PUBLIC "-//W3C//DTD SVG 1.1//EN" "http://www.w3.org/Graphics/SVG/1.1/DTD/svg11.dtd">
<svg version="1.1" xmlns="http://www.w3.org/2000/svg" xmlns:xlink="http://www.w3.org/1999/xlink" preserveAspectRatio="xMidYMid meet" viewBox="0 0 24 24" width="40" height="40"><defs><path d="M16.28 9.33C17.05 9.33 17.67 9.95 17.67 10.72C17.67 12.47 17.67 16.36 17.67 18.11C17.67 18.88 17.05 19.5 16.28 19.5C13.63 19.5 7.04 19.5 4.39 19.5C3.62 19.5 3 18.88 3 18.11C3 16.36 3 12.47 3 10.72C3 9.95 3.62 9.33 4.39 9.33C7.04 9.33 13.63 9.33 16.28 9.33Z" id="h9NF7iDas"></path><clipPath id="clipb9cIAerNf"><use xlink:href="#h9NF7iDas" opacity="1"></use></clipPath><path d="M19.58 4.5C20.37 4.5 21 5.13 21 5.92C21 7.73 21 11.77 21 13.58C21 14.37 20.37 15 19.58 15C16.87 15 10.13 15 7.42 15C6.63 15 6 14.37 6 13.58C6 11.77 6 7.73 6 5.92C6 5.13 6.63 4.5 7.42 4.5C10.13 4.5 16.87 4.5 19.58 4.5Z" id="a2cqkvhNoJ"></path><clipPath id="clipd4aDulgbv"><use xlink:href="#a2cqkvhNoJ" opacity="1"></use></clipPath></defs><g><g><g><use xlink:href="#h9NF7iDas" opacity="1" fill="#ffffff" fill-opacity="1"></use><g clip-path="url(#clipb9cIAerNf)"><use xlink:href="#h9NF7iDas" opacity="1" fill-opacity="0" stroke="#999999" stroke-width="4" stroke-opacity="1"></use></g></g><g><use xlink:href="#a2cqkvhNoJ" opacity="1" fill="#ffffff" fill-opacity="1"></use><g clip-path="url(#clipd4aDulgbv)"><use xlink:href="#a2cqkvhNoJ" opacity="1" fill-opacity="0" stroke="#999999" stroke-width="4" stroke-opacity="1"></use></g></g></g></g></svg>